# xmcd
#
# Track frame offsets:
#	150
#	22329
#	40196
#	60230
#	82815
#	99164
#	128324
#	146651
#	169243
#	191380
#	210264
#	234112
#
# Disc length: 3297 seconds
#
# Revision: 0
# Processed by: cddbd v1.5.2PL0 Copyright (c) Steve Scherf et al.
# Submitted via: EasyCDDAExtractor 10.0.3.1
#
DISCID=870cdf0c
DTITLE=Zervakis Giannis - Ola sto xrono t'afisa
DYEAR=2007
DGENRE=Kritika
TTITLE0=O ponos
TTITLE1=Gia panta mazi
TTITLE2=Ola sto xrono t'afisa
TTITLE3=Taxidi sto Aigaio
TTITLE4=Mi mou stereis
TTITLE5=Efxi in kaneis (kontylies)
TTITLE6=To s'agapo
TTITLE7=Me dixos oneira
TTITLE8=Matonei o Hlios
TTITLE9=Moro mou
TTITLE10=San kseni
TTITLE11=Omorfi mou kopelia
EXTD=
EXTT0=
EXTT1=
EXTT2=
EXTT3=
EXTT4=
EXTT5=
EXTT6=
EXTT7=
EXTT8=
EXTT9=
EXTT10=
EXTT11=
PLAYORDER=
